HIERARCHY
ROOT Hips
{
	OFFSET -0.001795 -0.223333 0.028219
	CHANNELS 6 Xposition Yposition Zposition Zrotation Yrotation Xrotation 
	JOINT LeftUpLeg
	{
		OFFSET 0.069520 -0.091406 -0.006815
		CHANNELS 3 Zrotation Yrotation Xrotation
		JOINT LeftLeg
		{
			OFFSET 0.034277 -0.375199 -0.004496
			CHANNELS 3 Zrotation Yrotation Xrotation
			JOINT LeftFoot
			{
				OFFSET -0.013596 -0.397961 -0.043693
				CHANNELS 3 Zrotation Yrotation Xrotation
				JOINT LeftToe
				{
					OFFSET 0.026358 -0.055791 0.119288
					CHANNELS 3 Zrotation Yrotation Xrotation
					End Site
					{
						OFFSET 0.000000 0.000000 0.000000
					}
				}
			}
		}
	}
	JOINT RightUpLeg
	{
		OFFSET -0.067670 -0.090522 -0.004320
		CHANNELS 3 Zrotation Yrotation Xrotation
		JOINT RightLeg
		{
			OFFSET -0.038290 -0.382569 -0.008850
			CHANNELS 3 Zrotation Yrotation Xrotation
			JOINT RightFoot
			{
				OFFSET 0.015774 -0.398415 -0.042312
				CHANNELS 3 Zrotation Yrotation Xrotation
				JOINT RightToe
				{
					OFFSET -0.025372 -0.048144 0.123348
					CHANNELS 3 Zrotation Yrotation Xrotation
					End Site
					{
						OFFSET 0.000000 0.000000 0.000000
					}
				}
			}
		}
	}
	JOINT Spine
	{
		OFFSET -0.002533 0.108963 -0.026696
		CHANNELS 3 Zrotation Yrotation Xrotation
		JOINT Spine1
		{
			OFFSET 0.005487 0.135180 0.001092
			CHANNELS 3 Zrotation Yrotation Xrotation
			JOINT Spine2
			{
				OFFSET 0.001457 0.052922 0.025425
				CHANNELS 3 Zrotation Yrotation Xrotation
				JOINT Neck
				{
					OFFSET -0.002778 0.213870 -0.042857
					CHANNELS 3 Zrotation Yrotation Xrotation
					JOINT Head
					{
						OFFSET 0.005152 0.064970 0.051349
						CHANNELS 3 Zrotation Yrotation Xrotation
						End Site
						{
							OFFSET 0.000000 0.000000 0.000000
						}
					}
				}
				JOINT LeftShoulder
				{
					OFFSET 0.078845 0.121749 -0.034090
					CHANNELS 3 Zrotation Yrotation Xrotation
					JOINT LeftArm
					{
						OFFSET 0.090977 0.030469 -0.008868
						CHANNELS 3 Zrotation Yrotation Xrotation
						JOINT LeftForeArm
						{
							OFFSET 0.259612 -0.012772 -0.027456
							CHANNELS 3 Zrotation Yrotation Xrotation
							JOINT LeftHand
							{
								OFFSET 0.249234 0.008986 -0.001171
								CHANNELS 3 Zrotation Yrotation Xrotation
								End Site
								{
									OFFSET 0.000000 0.000000 0.000000
								}
							}
						}
					}
				}
				JOINT RightShoulder
				{
					OFFSET -0.081759 0.118833 -0.038615
					CHANNELS 3 Zrotation Yrotation Xrotation
					JOINT RightArm
					{
						OFFSET -0.096012 0.032551 -0.009143
						CHANNELS 3 Zrotation Yrotation Xrotation
						JOINT RightForeArm
						{
							OFFSET -0.253742 -0.013329 -0.021401
							CHANNELS 3 Zrotation Yrotation Xrotation
							JOINT RightHand
							{
								OFFSET -0.255298 0.007772 -0.005559
								CHANNELS 3 Zrotation Yrotation Xrotation
								End Site
								{
									OFFSET 0.000000 0.000000 0.000000
								}
							}
						}
					}
				}
			}
		}
	}
}
MOTION
Frames: 14
Frame Time: 0.050000
-0.004224 0.936141 -0.051768 2.186344 -1.058629 -8.297332 3.972870 0.740342 11.744122 -6.998569 0.651779 -5.883337 8.438341 18.129120 13.817775 0.000000 0.000000 0.000000 -10.714903 0.063805 7.475312 7.122310 -0.743903 -0.189104 -3.695913 -11.683492 9.525423 0.000000 0.000000 0.000000 7.248173 0.565878 -4.120039 -6.063828 2.470367 -13.218713 -5.534064 10.305543 30.061342 7.921280 -0.929124 -29.378697 0.000000 0.000000 0.000000 -9.632954 -34.951504 13.103082 -38.475782 -42.442307 6.684516 -133.822360 -54.431396 104.088875 0.000000 0.000000 0.000000 15.981456 16.731394 9.829693 71.555736 43.031200 20.924355 110.536591 51.312956 83.483751 0.000000 0.000000 0.000000 
-0.003907 0.935588 -0.052083 2.068591 -1.319629 -8.539000 4.044816 0.760624 12.021487 -6.941253 0.653433 -5.882031 8.587389 18.338362 13.649900 0.000000 0.000000 0.000000 -10.674517 0.065982 7.297777 7.210124 -0.764319 0.477282 -3.617217 -11.491204 9.244311 0.000000 0.000000 0.000000 7.234587 0.552719 -3.931413 -6.217574 2.523235 -13.161746 -5.375653 10.365332 30.100727 8.239531 -1.159542 -29.130649 0.000000 0.000000 0.000000 -10.136844 -34.896604 13.200740 -38.392325 -41.356824 6.338232 -133.805163 -53.846786 103.378202 0.000000 0.000000 0.000000 15.995833 17.130011 10.006141 71.746452 43.240788 21.173933 110.461919 51.607851 83.664925 0.000000 0.000000 0.000000 
-0.003636 0.935260 -0.052409 1.959797 -1.142346 -8.607790 4.139366 0.739884 11.927411 -6.911861 0.653994 -5.646688 8.543224 18.271234 13.392519 0.000000 0.000000 0.000000 -10.623759 0.052572 7.016912 7.301188 -0.794029 1.157639 -3.725456 -11.655670 9.093933 0.000000 0.000000 0.000000 7.053864 0.530133 -3.803830 -6.157882 2.509559 -13.082364 -5.279937 10.365524 30.134014 8.329327 -1.191848 -29.132445 0.000000 0.000000 0.000000 -10.281545 -34.328988 12.960557 -38.899561 -40.643406 6.225400 -134.117651 -52.504543 102.087080 0.000000 0.000000 0.000000 15.936904 17.267996 10.086222 71.842362 43.439119 21.399621 110.818824 51.736695 84.282385 0.000000 0.000000 0.000000 
-0.003320 0.934917 -0.052670 1.759470 -0.843254 -8.689558 4.424087 0.695253 11.814478 -7.034476 0.663158 -5.363817 8.434545 18.106490 13.055782 0.000000 0.000000 0.000000 -10.481936 0.026036 6.957759 7.410972 -0.822739 1.523444 -3.859583 -11.889605 9.055717 0.000000 0.000000 0.000000 6.971409 0.522438 -3.772597 -6.067751 2.486333 -13.075336 -5.147647 10.357877 30.334764 8.852206 -1.476421 -29.042242 0.000000 0.000000 0.000000 -10.698279 -34.091515 12.903208 -39.362019 -40.070572 6.148444 -134.246167 -51.224664 100.580696 0.000000 0.000000 0.000000 15.960836 17.115499 10.062255 71.485158 43.420658 21.207989 111.713541 51.175636 84.781365 0.000000 0.000000 0.000000 
-0.002978 0.934871 -0.052798 1.596288 -0.185478 -8.748545 4.752969 0.640216 11.804038 -7.279030 0.666287 -5.368842 8.098450 17.618166 12.809550 0.000000 0.000000 0.000000 -10.466475 -0.008194 7.211592 7.688626 -0.867710 1.424005 -4.089706 -12.335528 9.257901 0.000000 0.000000 0.000000 6.905251 0.522017 -3.825899 -6.037188 2.490832 -13.061310 -5.068518 10.194733 30.513273 9.286929 -1.678683 -29.092114 0.000000 0.000000 0.000000 -11.012934 -33.852115 12.801085 -39.770599 -39.504931 6.056325 -134.301457 -50.161069 99.125238 0.000000 0.000000 0.000000 15.996844 16.820018 9.988908 70.842693 43.373312 20.858782 112.540622 51.024887 85.737518 0.000000 0.000000 0.000000 
-0.002564 0.934604 -0.052829 1.427152 0.496404 -8.747511 5.066974 0.576653 11.650411 -7.502150 0.669820 -5.237472 7.790137 17.155542 12.452885 0.000000 0.000000 0.000000 -10.294161 -0.052631 7.467111 7.703866 -0.879082 1.222639 -4.365465 -12.846456 9.373692 0.000000 0.000000 0.000000 6.665944 0.522243 -3.998807 -5.827933 2.431109 -13.134598 -4.983335 10.073838 30.818523 9.723855 -1.866092 -29.222775 0.000000 0.000000 0.000000 -11.315539 -33.532383 12.655373 -40.263812 -39.085691 6.011491 -134.027197 -48.987339 97.027530 0.000000 0.000000 0.000000 16.518690 16.408480 9.999589 69.774649 43.287704 20.199086 112.905794 51.115199 86.527111 0.000000 0.000000 0.000000 
-0.002107 0.934575 -0.052968 1.298545 1.097675 -8.827969 5.306373 0.527786 11.554434 -7.676965 0.674492 -5.053331 7.505064 16.730744 12.202714 0.000000 0.000000 0.000000 -10.088594 -0.099481 7.774767 7.565939 -0.871105 1.035103 -4.598937 -13.289627 9.535991 0.000000 0.000000 0.000000 6.644874 0.532495 -4.132537 -5.829386 2.449138 -13.010632 -4.859287 9.868762 31.055228 9.936863 -1.935332 -29.404097 0.000000 0.000000 0.000000 -11.399790 -33.385643 12.563477 -40.538051 -38.857020 5.980556 -133.714231 -48.411971 95.694462 0.000000 0.000000 0.000000 16.555741 15.992587 9.846303 68.902328 42.922454 19.485097 113.359326 51.365657 87.513866 0.000000 0.000000 0.000000 
-0.001669 0.934562 -0.053329 1.248094 1.571488 -8.932077 5.324213 0.507226 11.492837 -7.622892 0.666784 -4.885242 7.298301 16.418927 12.007429 0.000000 0.000000 0.000000 -10.044104 -0.131292 8.154179 7.554324 -0.870409 0.689818 -4.761815 -13.602355 9.709939 0.000000 0.000000 0.000000 6.420087 0.523499 -4.173964 -5.571678 2.374176 -12.871080 -4.842739 9.527759 31.116685 9.848065 -1.847711 -29.709914 0.000000 0.000000 0.000000 -11.442910 -33.204123 12.492297 -40.852692 -38.705872 6.003550 -133.403260 -48.374460 95.230901 0.000000 0.000000 0.000000 16.445396 15.691776 9.662032 68.356333 42.214404 18.699328 113.922897 51.323385 88.159249 0.000000 0.000000 0.000000 
-0.001326 0.934809 -0.053989 1.145936 1.815357 -8.885406 5.400960 0.487111 11.438902 -7.592167 0.654472 -5.020928 7.173385 16.240375 12.023446 0.000000 0.000000 0.000000 -9.926896 -0.149724 8.143162 7.525783 -0.870703 0.620363 -4.849481 -13.783041 9.914629 0.000000 0.000000 0.000000 6.382565 0.524478 -4.230502 -5.448690 2.336928 -12.814869 -4.818450 9.149171 31.084115 9.787149 -1.861353 -29.642655 0.000000 0.000000 0.000000 -11.440483 -32.932211 12.409851 -41.078338 -38.820719 6.096573 -133.280631 -48.556540 95.464623 0.000000 0.000000 0.000000 16.562638 15.110193 9.352059 67.802362 41.271182 17.707230 114.101390 50.534812 87.357062 0.000000 0.000000 0.000000 
-0.001141 0.935087 -0.054927 1.082977 1.948050 -8.762110 5.278853 0.485081 11.247788 -7.285115 0.630592 -5.076288 7.133857 16.188541 12.064082 0.000000 0.000000 0.000000 -9.876209 -0.155241 8.027249 7.557439 -0.874307 0.514222 -4.894381 -13.883825 10.113233 0.000000 0.000000 0.000000 6.300093 0.498525 -4.030296 -5.251759 2.264610 -12.998074 -4.871808 8.715959 31.006716 9.596208 -1.790133 -29.773699 0.000000 0.000000 0.000000 -11.575748 -32.821275 12.447557 -41.333281 -39.116269 6.285635 -132.547354 -49.126914 95.435752 0.000000 0.000000 0.000000 16.618351 14.839415 9.150735 67.446752 40.369835 16.865881 114.280732 50.164349 86.941967 0.000000 0.000000 0.000000 
-0.001228 0.935337 -0.056054 1.055475 1.887626 -8.579846 5.122775 0.494094 11.106771 -6.973689 0.605273 -5.315703 7.173357 16.259276 12.218522 0.000000 0.000000 0.000000 -9.740888 -0.153297 7.781573 7.398552 -0.851769 0.433646 -4.888255 -13.884855 10.223399 0.000000 0.000000 0.000000 6.311375 0.491226 -3.981046 -5.157259 2.226427 -13.099102 -5.057367 8.410805 30.989464 9.663058 -1.839742 -30.091095 0.000000 0.000000 0.000000 -11.582675 -32.913790 12.560000 -41.429262 -39.350943 6.402834 -131.828415 -49.880828 95.694797 0.000000 0.000000 0.000000 17.110376 14.541468 9.031931 66.789334 39.395031 15.804596 114.285516 49.431138 85.843087 0.000000 0.000000 0.000000 
-0.001597 0.935319 -0.057151 1.008976 1.803197 -8.317342 5.054177 0.495139 10.980017 -6.753435 0.581916 -5.729317 7.221462 16.339252 12.355248 0.000000 0.000000 0.000000 -9.570985 -0.151138 7.533537 7.256327 -0.827170 0.196586 -4.884951 -13.883713 10.265015 0.000000 0.000000 0.000000 6.229189 0.462870 -3.768240 -5.078079 2.187126 -13.427423 -5.145049 8.073040 30.860711 9.488978 -1.793331 -30.169533 0.000000 0.000000 0.000000 -11.403419 -32.830139 12.564925 -41.834842 -39.621246 6.609049 -130.651517 -50.673098 95.375550 0.000000 0.000000 0.000000 17.583388 14.236109 8.887098 66.414829 38.441951 14.912661 114.233489 48.945384 84.958857 0.000000 0.000000 0.000000 
-0.002258 0.935254 -0.058021 0.944050 1.584276 -8.159875 5.013536 0.496398 10.800165 -6.510048 0.570273 -5.787093 7.355504 16.536363 12.421791 0.000000 0.000000 0.000000 -9.423998 -0.141329 7.162437 7.206625 -0.821041 0.368009 -4.835268 -13.785788 10.181247 0.000000 0.000000 0.000000 6.231319 0.441003 -3.551703 -5.036011 2.164074 -13.585092 -5.298819 7.739706 30.721116 9.427509 -1.832730 -30.212643 0.000000 0.000000 0.000000 -11.232504 -32.691549 12.562889 -42.000180 -39.879309 6.751620 -130.067415 -51.282846 95.693570 0.000000 0.000000 0.000000 18.037416 13.910553 8.701791 65.947019 37.303646 13.867947 114.537638 47.965290 83.833407 0.000000 0.000000 0.000000 
-0.002997 0.935076 -0.058547 0.941744 1.450501 -8.125319 4.965557 0.511240 10.954098 -6.349254 0.554367 -6.166094 7.410526 16.621466 12.528503 0.000000 0.000000 0.000000 -9.290211 -0.140133 6.984585 7.061142 -0.804905 0.510743 -4.818949 -13.741402 10.031531 0.000000 0.000000 0.000000 6.106233 0.402936 -3.202437 -4.992349 2.142073 -13.736284 -5.416160 7.514371 30.519029 9.424916 -1.890870 -30.128606 0.000000 0.000000 0.000000 -10.900592 -32.568904 12.499524 -42.123849 -40.069757 6.863756 -129.981776 -51.821941 96.436129 0.000000 0.000000 0.000000 18.331526 13.767043 8.603543 65.610636 36.232903 12.990210 114.946946 47.331756 83.294348 0.000000 0.000000 0.000000 
